<svg width="15" height="15" viewBox="0 0 15 15" fill="none" xmlns="http://www.w3.org/2000/svg">
<mask id="path-1-inside-1_1145_383" fill="white">
<path fill-rule="evenodd" clip-rule="evenodd" d="M10.0629 12.4577H12.911C14.1722 12.4577 14.8679 10.9936 14.0715 10.0158C13.4998 9.31404 13.1198 8.47617 12.9683 7.58384L12.4868 4.74651C12.0722 2.30304 9.95528 0.515137 7.47688 0.515137C4.99849 0.515137 2.8816 2.30304 2.46693 4.7465L1.98543 7.58384C1.83399 8.47617 1.45394 9.31404 0.882317 10.0158C0.0858274 10.9936 0.781596 12.4577 2.04273 12.4577H4.89089C5.07198 13.7237 6.16077 14.6969 7.47687 14.6969C8.79296 14.6969 9.88176 13.7237 10.0629 12.4577Z"/>
</mask>
<path d="M10.0629 12.4577V11.4577H9.19571L9.07293 12.3161L10.0629 12.4577ZM14.0715 10.0158L14.8468 9.38422L14.8468 9.38421L14.0715 10.0158ZM12.9683 7.58384L13.9542 7.41653V7.41653L12.9683 7.58384ZM12.4868 4.74651L13.4727 4.57919V4.57919L12.4868 4.74651ZM2.46693 4.7465L3.45284 4.91382L2.46693 4.7465ZM1.98543 7.58384L0.999521 7.41653L1.98543 7.58384ZM0.882317 10.0158L1.65764 10.6473H1.65764L0.882317 10.0158ZM4.89089 12.4577L5.88081 12.3161L5.75802 11.4577H4.89089V12.4577ZM12.911 11.4577H10.0629V13.4577H12.911V11.4577ZM13.2961 10.6473C13.5605 10.9718 13.3296 11.4577 12.911 11.4577V13.4577C15.0148 13.4577 16.1754 11.0153 14.8468 9.38422L13.2961 10.6473ZM11.9824 7.75115C12.1628 8.81383 12.6154 9.81165 13.2961 10.6473L14.8468 9.38421C14.3843 8.81644 14.0768 8.13851 13.9542 7.41653L11.9824 7.75115ZM11.5009 4.91382L11.9824 7.75115L13.9542 7.41653L13.4727 4.57919L11.5009 4.91382ZM7.47688 1.51514C9.46756 1.51514 11.1679 2.9512 11.5009 4.91382L13.4727 4.57919C12.9765 1.65488 10.443 -0.484863 7.47688 -0.484863V1.51514ZM3.45284 4.91382C3.7859 2.9512 5.48621 1.51514 7.47688 1.51514V-0.484863C4.51076 -0.484863 1.9773 1.65488 1.48103 4.57919L3.45284 4.91382ZM2.97133 7.75115L3.45284 4.91382L1.48103 4.57919L0.999521 7.41653L2.97133 7.75115ZM1.65764 10.6473C2.33838 9.81165 2.79099 8.81383 2.97133 7.75115L0.999521 7.41653C0.876997 8.13851 0.569496 8.81644 0.106994 9.38421L1.65764 10.6473ZM2.04273 11.4577C1.62422 11.4577 1.39332 10.9718 1.65764 10.6473L0.106994 9.38421C-1.22166 11.0153 -0.061024 13.4577 2.04273 13.4577V11.4577ZM4.89089 11.4577H2.04273V13.4577H4.89089V11.4577ZM7.47687 13.6969C6.66541 13.6969 5.99245 13.0966 5.88081 12.3161L3.90096 12.5993C4.15151 14.3509 5.65613 15.6969 7.47687 15.6969V13.6969ZM9.07293 12.3161C8.96129 13.0966 8.28832 13.6969 7.47687 13.6969V15.6969C9.2976 15.6969 10.8022 14.3509 11.0528 12.5993L9.07293 12.3161Z" fill="#7F04AA" mask="url(#path-1-inside-1_1145_383)"/>
</svg>
