<svg width="20" height="20" viewBox="0 0 20 20" fill="none" xmlns="http://www.w3.org/2000/svg">
<path d="M4.99984 1.66667H14.9998C15.2209 1.66667 15.4328 1.75447 15.5891 1.91075C15.7454 2.06703 15.8332 2.27899 15.8332 2.50001V18.4525C15.8333 18.527 15.8134 18.6002 15.7756 18.6644C15.7378 18.7286 15.6835 18.7815 15.6183 18.8176C15.5531 18.8537 15.4794 18.8716 15.405 18.8695C15.3305 18.8675 15.2579 18.8455 15.1948 18.8058L9.99984 15.025L4.80484 18.805C4.74181 18.8446 4.66933 18.8666 4.59492 18.8687C4.52052 18.8708 4.44691 18.8529 4.38175 18.8169C4.31659 18.781 4.26226 18.7282 4.22441 18.6641C4.18655 18.6 4.16656 18.5269 4.1665 18.4525V2.50001C4.1665 2.27899 4.2543 2.06703 4.41058 1.91075C4.56686 1.75447 4.77882 1.66667 4.99984 1.66667ZM14.1665 3.33334H5.83317V16.1933L9.99984 13.0592L14.1665 16.1933V3.33334Z" fill="#06070D"/>
</svg>
