<svg width="16" height="18" viewBox="0 0 16 18" fill="none" xmlns="http://www.w3.org/2000/svg">
<path fill-rule="evenodd" clip-rule="evenodd" d="M12.3772 12.8822C12.0741 13.2285 11.5476 13.2637 11.2013 12.9606C10.8549 12.6575 10.8197 12.131 11.1228 11.7847L12.8302 9.83342H4.66667C4.20643 9.83342 3.83333 9.46033 3.83333 9.00008C3.83333 8.53983 4.20643 8.16675 4.66667 8.16675H12.8302L11.1228 6.21551C10.8197 5.86914 10.8549 5.34267 11.2013 5.0396C11.5476 4.73653 12.0741 4.77163 12.3772 5.118L15.2938 8.45133C15.5687 8.7655 15.5687 9.23466 15.2938 9.54883L12.3772 12.8822ZM4.66667 2.33341C5.12691 2.33341 5.5 1.96032 5.5 1.50008C5.5 1.03985 5.12691 0.666748 4.66667 0.666748H2.16667C1.24619 0.666748 0.5 1.41294 0.5 2.33341V15.6667C0.5 16.5872 1.24619 17.3334 2.16667 17.3334H4.66667C5.12691 17.3334 5.5 16.9603 5.5 16.5001C5.5 16.0398 5.12691 15.6667 4.66667 15.6667H2.16667V2.33341H4.66667Z" fill="#7F04AA"/>
</svg>
