<svg width="19" height="19" viewBox="0 0 19 19" fill="none" xmlns="http://www.w3.org/2000/svg">
<path d="M0 12.7136V18.4438H4.53441V10.022L0 12.7136ZM1.8057 15.9081V13.8766H2.88288V15.9081H1.8057Z" fill="#7F04AA"/>
<path d="M18.5029 12.7133L13.9652 10.0217V18.4436H18.5029V12.7133ZM16.8088 15.9079H15.7316V13.8764H16.8088V15.9079Z" fill="#7F04AA"/>
<path d="M5.58241 18.4437H7.63403V14.7363C7.63403 13.8454 8.35886 13.1205 9.24982 13.1205C10.1408 13.1205 10.8656 13.8454 10.8656 14.7363V18.4437H12.9172V7.91224L15.9089 9.7969L16.4831 8.88549L9.75869 4.64936V2.23911H10.9346V1.16193H9.75869V0H8.68151V1.16189H7.56512V2.23907H8.68151V4.68673L2.01648 8.88549L2.59061 9.7969L5.58241 7.9122V18.4437ZM8.71125 8.23655H9.78843V10.3909H8.71125V8.23655Z" fill="#7F04AA"/>
<path d="M9.7884 14.7364C9.7884 14.4394 9.54681 14.1978 9.24979 14.1978C8.9528 14.1978 8.71118 14.4394 8.71118 14.7364V18.4437H9.78836V14.7364H9.7884Z" fill="#7F04AA"/>
</svg>
