<svg width="19" height="19" viewBox="0 0 19 19" fill="none" xmlns="http://www.w3.org/2000/svg">
<path d="M2.75611 3.18563L2.7563 3.18542C5.29717 0.468505 9.39489 0.0700272 12.3728 2.26417L12.3728 2.26418C13.8304 3.33845 14.7825 4.77104 15.149 6.54223C15.6278 8.83903 15.0984 10.9209 13.6069 12.7465C13.6175 12.7578 13.628 12.7689 13.6383 12.7799C13.7062 12.852 13.7697 12.9195 13.8348 12.9844L13.835 12.9846C14.5131 13.6643 15.1926 14.3427 15.8722 15.0212C16.5518 15.6997 17.2314 16.3783 17.9098 17.0582C17.9848 17.1331 18.0817 17.244 18.1191 17.3709L17.9752 17.4133M2.75611 3.18563L2.86586 3.28788C0.443795 5.88774 0.376227 9.93024 2.68394 12.6702C4.9033 15.3116 9.36281 16.2872 12.7776 13.3915C12.9113 13.5277 13.0439 13.6632 13.1759 13.798C13.5521 14.1822 13.9235 14.5615 14.3005 14.938C14.9381 15.578 15.5781 16.2158 16.2173 16.8528C16.5367 17.1712 16.856 17.4895 17.1748 17.8077C17.3515 17.9841 17.5438 18.0723 17.7829 17.927M2.75611 3.18563C0.281211 5.8422 0.213749 9.97004 2.5691 12.7667M2.75611 3.18563L2.5691 12.7667M17.9752 17.4133L18.1188 17.3701C18.1568 17.4963 18.1634 17.6283 18.1201 17.7526C18.0762 17.8783 17.9866 17.9809 17.8599 18.0557C17.8596 18.0559 17.8593 18.0561 17.859 18.0563L17.7829 17.927M17.9752 17.4133C17.9492 17.3251 17.8764 17.2368 17.8037 17.1642L17.7829 17.927M17.9752 17.4133C18.0375 17.6208 17.9856 17.8077 17.7829 17.927M2.5691 12.7667C4.81287 15.4371 9.29683 16.4405 12.7674 13.5953C12.8681 13.698 12.9684 13.8004 13.0683 13.9025C13.4446 14.2868 13.8167 14.6669 14.1943 15.0439L2.5691 12.7667ZM8.08898 14.103H8.08896C4.74675 14.1131 2.0746 11.4505 2.05431 8.11825C2.03402 4.77583 4.69089 2.0627 8.07382 2.0627C11.6084 2.0627 14.1241 4.94797 14.1089 8.07691L14.1089 8.07887C14.1343 11.1923 11.639 14.0928 8.08898 14.103Z" fill="#F7BB22" stroke="#F6BB22" stroke-width="0.3"/>
</svg>
